<mxfile host="app.diagrams.net" modified="2024-05-11T18:13:51.112Z" agent="Mozilla/5.0 (Windows NT 10.0; Win64; x64) AppleWebKit/537.36 (KHTML, like Gecko) Chrome/124.0.0.0 Safari/537.36" version="24.4.0" etag="MgKPM1tHDOfZ7fdBc5hX" type="github">
  <diagram name="PÃ¡gina-1" id="Y8I1AI4eJEFvHPt99ypV">
    <mxGraphModel>
      <root>
        <mxCell id="0" />
        <mxCell id="1" parent="0" />
      </root>
    </mxGraphModel>
  </diagram>
</mxfile>
